<svg id="Capa_1" enable-background="new 0 0 512.165 512.165" height="512" viewBox="0 0 512.165 512.165" width="512" xmlns="http://www.w3.org/2000/svg"><g><path d="m294.198 121h84.84c-6.192-17.459-22.865-30-42.42-30s-36.227 12.541-42.42 30z" id="id_101" style="fill: rgb(255, 255, 255);"></path><path d="m263.128 121c6.968-34.192 37.271-60 73.491-60s66.522 25.808 73.491 60h60.671c-7.487-67.406-64.794-120-134.163-120s-126.675 52.594-134.161 120z" id="id_102" style="fill: rgb(255, 255, 255);"></path><path d="m80.411 197.832h237.664l39.027-46.832h-315.717z" id="id_103" style="fill: rgb(255, 255, 255);"></path><path d="m95.618 0h30v121h-30z" id="id_104" style="fill: rgb(255, 255, 255);"></path><path d="m214.243 322.431 78.832-94.599h-187.664l78.832 94.599v159.734h-75v30h180v-30h-75z" id="id_105" style="fill: rgb(255, 255, 255);"></path></g></svg>